<?xml version="1.0" encoding="UTF-8"?>
<svg id="Layer_1" data-name="Layer 1" xmlns="http://www.w3.org/2000/svg" viewBox="0 0 250 260.63">
  <defs>
    <style>
      .cls-1 {
        fill: #fabc04;
      }

      .cls-2 {
        fill: #ea4235;
      }

      .cls-3 {
        fill: #e63120;
      }

      .cls-4 {
        fill: #e63935;
      }

      .cls-5 {
        fill: #e8392a;
      }

      .cls-6 {
        fill: #e82d1c;
      }

      .cls-7 {
        fill: #fbc303;
      }

      .cls-8 {
        fill: #9cbff3;
      }

      .cls-9 {
        fill: #d1e2d3;
      }

      .cls-10 {
        fill: #e42c1c;
      }

      .cls-11 {
        fill: #e42e1e;
      }

      .cls-12 {
        fill: #e43422;
      }

      .cls-13 {
        fill: #e43525;
      }

      .cls-14 {
        fill: #0f9c3e;
      }

      .cls-15 {
        fill: #0e9d40;
      }

      .cls-16 {
        fill: #149e41;
      }

      .cls-17 {
        fill: #1ea146;
      }

      .cls-18 {
        fill: #4184f4;
      }

      .cls-19 {
        fill: #139c40;
      }

      .cls-20 {
        fill: #0c9a3c;
      }

      .cls-21 {
        fill: #357ef1;
      }

      .cls-22 {
        fill: #169c41;
      }

      .cls-23 {
        fill: #199e42;
      }

      .cls-24 {
        fill: #2975eb;
      }

      .cls-25 {
        fill: #2aa754;
      }

      .cls-26 {
        fill: #2c78ef;
      }

      .cls-27 {
        fill: #377ef1;
      }

      .cls-28 {
        fill: #33a852;
      }
    </style>
  </defs>
  <path class="cls-1" d="m42.49,210.11c-3.16-3.52-6.45-6.93-9.44-10.58-5.74-7.03-10.3-14.82-14.03-23.08-1.34-2.97-2.5-6.03-3.65-9.08-.95-2.51-1.91-5.04-2.59-7.63-.89-3.43-1.53-6.92-2.25-10.39-.33-1.56-.61-3.13-.91-4.69-.05-.28-.08-.57-.11-.86-.24-2.21-.53-4.41-.71-6.62-.11-1.32-.09-2.66-.09-3.99,0-3.91-.18-7.85.11-11.74.31-4.25.98-8.48,1.65-12.69.56-3.48,1.19-6.96,2.1-10.36.9-3.33,2.12-6.57,3.33-9.8,2.57-6.85,5.75-13.4,9.57-19.65,4.12-6.73,8.84-13,14.21-18.78.9-.97,1.86-1.89,2.8-2.84.26.28.51.56.77.84-.6,1.18-.05,2.19.69,2.95,2.71,2.8,5.52,5.5,8.28,8.24,4.39,4.35,8.8,8.69,13.18,13.07,1.75,1.75,3.4,3.58,5.13,5.35.85.87,1.76,1.67,2.83,2.67.32-.74.49-1.15.66-1.55l.77.81c-2.1,2.46-4.29,4.86-6.29,7.4-3.38,4.3-6.11,9-8.16,14.08-1.02,2.53-2.04,5.07-2.89,7.66-.56,1.72-.85,3.52-1.18,5.31-.61,3.29-1.34,6.56-1.68,9.88-.26,2.51-.1,5.07.06,7.6.19,3.12.45,6.25.92,9.33.35,2.24,1.13,4.42,1.67,6.64,1.27,5.22,3.51,10.05,6.09,14.71,2.83,5.11,6.1,9.93,10.35,14,.42.4.75.88,1.12,1.33-.26.35-.51.69-.77,1.04-.81.84-1.6,1.68-2.42,2.51-6.52,6.55-13.03,13.1-19.57,19.63-2.96,2.96-5.96,5.88-8.94,8.83-.19.16-.38.33-.58.49Z"/>
  <path class="cls-18" d="m188.75,151.88c-.08,0-.16,0-.24-.02-.17-.07-.34-.15-.51-.22.05-1.22-.84-1.01-1.56-1.01-11.95,0-23.91,0-35.86,0-1.63,0-2.04-.36-2.06-2.03,0-.95.22-1.89.22-2.84.02-4.62,0-9.25.02-13.87.01-1.59.22-3.18.22-4.78,0-4.72-.03-9.44-.07-14.16-.01-1.38-.07-2.76-.14-4.14-.04-.85.86-2.08,1.73-2.17,1.19-.13,2.39-.25,3.59-.26,23.41-.01,46.82-.01,70.23,0,3.51,0,7.04-.18,10.43,1,1.06.92,1.35,2.09,1.28,3.46-.05.93-.15,2.08.31,2.77.63.94.65,1.83.66,2.81,0,1.48.09,2.96-.02,4.43-.1,1.39.39,2.14,1.78,2.27.06.06.17.11.17.17-.04,3.74-.06,7.47-.14,11.21-.02,1.07-.16,2.14-.28,3.2-.41,3.65-.7,7.32-1.29,10.95-.58,3.53-1.31,7.05-2.26,10.5-.98,3.54-2.3,6.99-3.47,10.47-.46.2-1.07.29-1.35.64-.47.58-.71,1.34-1.06,2.01-.34.65-.74,1.28-1.04,1.95-.76,1.72-1.38,3.5-2.22,5.17-1.19,2.34-2.5,4.62-3.83,6.9-1.45,2.5-2.8,5.07-4.5,7.4-2.34,3.2-4.93,6.22-7.46,9.28-1.27,1.53-2.65,2.96-3.94,4.48-.6.71-.93,1.71-2.1,1.71-.07,0-.15,0-.22-.02-.73-.85-1.42-1.74-2.21-2.53-7.64-7.67-15.31-15.32-22.96-22.98-1.56-1.56-3.08-3.15-4.61-4.73-.33-.77-.13-1.32.64-1.71.33-.16.6-.44.88-.68,3.86-3.35,6.38-7.75,9.25-11.87.88-1.6,1.78-3.18,2.64-4.79.84-1.57,1.7-3.15,2.45-4.76.3-.65.43-1.4.48-2.12,0-.13-.79-.27-1.17-.48-.19-.1-.27-.39-.4-.59Z"/>
  <path class="cls-28" d="m173.98,178.89c1.54,1.58,3.06,3.17,4.61,4.73,7.65,7.66,15.31,15.31,22.96,22.98.79.79,1.47,1.68,2.21,2.53-.43.54-.78,1.16-1.29,1.62-2.77,2.54-5.46,5.18-8.39,7.52-2.84,2.26-5.9,4.27-8.96,6.26-2.6,1.69-5.24,3.36-8.02,4.72-4.3,2.11-8.73,3.94-13.1,5.89-1.64.57-3.28,1.18-4.94,1.7-2.84.88-5.66,1.85-8.55,2.51-3.86.88-7.77,1.58-11.69,2.18-2.88.44-5.8.72-8.71.82-3.99.14-8,.04-11.99.03-1.3,0-2.37.36-2.86,1.71-.67-.14-1.35-.28-2.02-.41-.73-.68-1.37-1.79-2.2-1.95-2.21-.42-4.46-.38-6.69-1.03-2.62-.77-5.38-1.08-8.07-1.6-.68-.13-1.36-.31-2.03-.46-1.53-.44-3.09-.81-4.59-1.33-2.45-.86-4.92-1.71-7.29-2.77-4.5-2.01-8.94-4.14-13.38-6.27-1.86-.89-3.66-1.91-5.48-2.87-.23-.24-.42-.52-.69-.7-3.24-2.28-6.55-4.46-9.71-6.85-2.37-1.79-4.56-3.82-6.8-5.79-.52-.46-.89-1.09-1.32-1.65,1.1-1.05,2.23-2.08,3.29-3.17,1.94-1.98,3.82-4.04,5.78-6,4.78-4.78,9.6-9.52,14.39-14.28,1.52-1.52,2.94-3.15,4.53-4.59.79-.72,1.85-1.15,2.78-1.71,1.99,1.67,3.89,3.47,6.01,4.96,2.79,1.96,5.68,3.8,8.66,5.46,2.55,1.42,5.27,2.55,7.93,3.74,1.08.49,2.22.84,3.35,1.22,1.65.56,3.29,1.12,4.96,1.61,1.09.32,2.22.51,3.33.76.33.08.67.16,1,.25.67,0,1.33,0,2,0,.9.05,2.1-.25,2.64.21,1.08.92,2.2.76,3.36.79,3.03,0,6.06.05,9.09-.02,1.18-.03,2.36-.31,3.53-.5.88-.14,1.75-.32,2.62-.48.58,0,1.17,0,1.75,0,.42-.08.83-.16,1.25-.24.64-.16,1.28-.31,1.92-.48,2.89-.81,5.86-1.41,8.65-2.48,6.66-2.57,12.89-6.03,18.62-10.29,2.56-1.9,4.87-4.13,7.29-6.21l.26-.02Z"/>
  <path class="cls-2" d="m113.5,13.92c1.17-.09,2.34-.17,3.51-.26.34.31.63.77,1.03.91,3.64,1.33,7.29.88,10.92-.09.32-.09.53-.54.8-.82,1.34.08,2.67.16,4.01.23.07,1.13.85,1.56,1.81,1.71,3.51.52,7.03.95,10.53,1.53,2.46.41,4.91.88,7.31,1.54,2.38.66,4.7,1.56,7.03,2.39,2.39.85,4.79,1.7,7.15,2.64,1.47.58,2.89,1.3,4.31,2,2.04,1,4.1,1.96,6.08,3.08,2.01,1.13,3.93,2.4,5.88,3.63,2.41,1.53,4.87,2.98,7.17,4.65,2.51,1.81,4.9,3.8,7.28,5.78,1.64,1.36,3.17,2.85,4.79,4.32-.6.64-1.1,1.17-1.61,1.7-3.42,3.39-6.85,6.76-10.26,10.16-4.6,4.59-9.2,9.18-13.77,13.8-.58.59-.98,1.35-1.47,2.02-.08,0-.16,0-.25.01-.09.08-.17.17-.26.25-.75.71-1.46,1.48-2.28,2.1-.27.21-1.02.25-1.21.05-3.77-3.95-8.22-7.01-12.87-9.78-1.61-.96-3.41-1.59-5.13-2.37-.86-.5-1.67-1.12-2.58-1.48-2.01-.79-4.16-1.28-6.1-2.21-1.3-.62-2.54-.84-3.92-.83-.5,0-1.04-.18-1.5-.41-1.01-.49-2.86-.19-3.4.61l-10.51-1.23c.01-1.41-1.11-1.66-2.05-1.66-2.33,0-4.66.2-6.99.35-1.15.08-2.3.23-3.45.35-.58.08-1.16.17-1.75.25-.17.08-.33.16-.5.25-2.42.51-4.91.83-7.25,1.59-3.28,1.07-6.47,2.41-9.66,3.75-4.06,1.71-7.84,3.96-11.41,6.53-2.3,1.66-4.38,3.62-6.6,5.39-.62.5-1.38.82-2.08,1.22-.23-.43-.37-.95-.7-1.28-2.64-2.7-5.31-5.38-7.98-8.05-3.19-3.2-6.37-6.4-9.56-9.6-1.77-1.78-3.55-3.55-5.32-5.33-1.9-1.91-3.8-3.82-5.7-5.73.25-.54.36-1.23.77-1.59,2.87-2.55,5.71-5.14,8.73-7.51,2.79-2.18,5.72-4.23,8.73-6.09,3.51-2.16,7.11-4.2,10.8-6.03,3.46-1.72,7.02-3.31,10.67-4.57,4.24-1.46,8.62-2.54,12.96-3.72,2.42-.66,4.88-1.17,7.33-1.74,2.36-.25,4.73-.47,7.08-.78.9-.12,1.54-.62,1.42-1.67Z"/>
  <path class="cls-27" d="m234.75,107.38c-3.4-1.18-6.92-1-10.43-1-23.41,0-46.82,0-70.23,0-1.2,0-2.4.13-3.59.26-.87.09-1.78,1.32-1.73,2.17.07,1.38.13,2.76.14,4.14.04,4.72.08,9.44.07,14.16,0,1.59-.21,3.18-.22,4.78-.03,4.62,0,9.25-.02,13.87,0,.95-.23,1.9-.22,2.84.01,1.66.43,2.03,2.06,2.03,11.95,0,23.91,0,35.86,0,.72,0,1.61-.22,1.56,1.01-.1.06-.19.12-.29.18-.23,0-.45-.01-.68-.02-.11-.02-.22-.03-.33-.05-11.47,0-22.95.01-34.42.02-.75,0-1.5.01-2.24.02-.11,0-.22,0-.33.01-.23,0-.46.02-.68.03-.1,0-.2.01-.3.02-.17,0-.34,0-.5.02-1.11.21-1.51-.15-1.51-1.37.04-12.91.03-25.81.03-38.72,0-1.62.05-3.25-.03-4.87-.05-1.07.35-1.31,1.36-1.31,14.7.03,29.39.03,44.09.03,13.53,0,27.06,0,40.59,0,.42,0,.83.02,1.25.04.25.57.5,1.14.75,1.71Z"/>
  <path class="cls-3" d="m201.5,48.88c.5-.53,1.01-1.07,1.61-1.7-1.62-1.47-3.16-2.95-4.79-4.32-2.38-1.98-4.77-3.97-7.28-5.78-2.31-1.67-4.77-3.12-7.17-4.65-1.95-1.23-3.87-2.51-5.88-3.63-1.98-1.11-4.04-2.08-6.08-3.08-1.42-.7-2.84-1.42-4.31-2-2.36-.94-4.76-1.78-7.15-2.64-2.33-.83-4.65-1.74-7.03-2.39-2.4-.66-4.85-1.14-7.31-1.54-3.5-.58-7.02-1.01-10.53-1.53-.96-.14-1.74-.58-1.81-1.71.25,0,.5.02.75.02.08,0,.16.01.24.02,2.1.31,4.21.56,6.3.94,3.53.64,7.08,1.24,10.57,2.07,3.09.74,6.12,1.72,9.16,2.67,1.78.56,3.51,1.25,5.26,1.9,6.19,2.31,12.05,5.26,17.65,8.75,6.45,4.02,12.6,8.42,18.03,13.76.74.73,1.55,1.38,2.33,2.08,1.01.91.97,1.42-.04,2.29-.71.61-1.33,1.33-1.99,2-.17-.51-.34-1.02-.51-1.53Z"/>
  <path class="cls-11" d="m105,16.37c-2.44.58-4.91,1.09-7.33,1.74-4.34,1.18-8.72,2.25-12.96,3.72-3.65,1.26-7.21,2.85-10.67,4.57-3.69,1.83-7.3,3.87-10.8,6.03-3.02,1.86-5.94,3.91-8.73,6.09-3.02,2.36-5.86,4.95-8.73,7.51-.41.36-.52,1.05-.77,1.59-.51.18-1.02.35-1.53.53-.07,0-.15,0-.22,0-.26-.28-.51-.56-.77-.84,2.52-2.36,4.94-4.83,7.56-7.05,6.15-5.2,12.89-9.54,19.94-13.42,6.1-3.35,12.49-5.99,19.14-7.98,4.17-1.25,8.39-2.36,12.62-3.44,1.29-.33,2.67-.34,4.01-.49-.25.48-.49.96-.74,1.44Z"/>
  <path class="cls-19" d="m115.26,244.08c.49-1.35,1.57-1.71,2.86-1.71,4,0,8,.1,11.99-.03,2.91-.1,5.83-.38,8.71-.82,3.92-.6,7.83-1.3,11.69-2.18,2.89-.66,5.71-1.63,8.55-2.51,1.66-.52,3.29-1.13,4.94-1.7,0,.5,0,1,0,1.5,0,0,0,0,0,0-.17.07-.34.13-.5.2-3.68,1.17-7.32,2.5-11.05,3.46-3.79.97-7.67,1.67-11.54,2.32-2.82.48-5.69.6-8.51,1.04-5.7.88-11.43.32-17.15.43Z"/>
  <path class="cls-20" d="m164.01,236.64c0-.5,0-1,0-1.5,4.37-1.95,8.81-3.78,13.1-5.89,2.78-1.36,5.42-3.03,8.02-4.72,3.05-1.98,6.11-3.99,8.96-6.26,2.93-2.34,5.63-4.98,8.39-7.52.5-.46.86-1.08,1.29-1.62.07.02.15.02.22.02.19.37.39.74.58,1.11-.44.58-.78,1.29-1.33,1.74-4.69,3.87-9.24,7.94-14.17,11.48-7.72,5.54-16.08,9.97-25.06,13.16Z"/>
  <path class="cls-15" d="m173.72,178.91c-2.42,2.08-4.74,4.31-7.29,6.21-5.73,4.27-11.95,7.72-18.62,10.29-2.79,1.08-5.76,1.67-8.65,2.48-.63.18-1.28.32-1.92.48-.5-.34-.97-.52-1.25.24-.58,0-1.17,0-1.75,0,.17-.48.33-.97.5-1.45h1.5c.07.11.15.23.22.35.09-.14.19-.28.28-.41,1.11-.32,2.2-.71,3.33-.96,2.32-.53,4.6-1.11,6.77-2.15,1.89-.91,3.92-1.51,5.83-2.37,6.01-2.72,11.49-6.29,16.51-10.57,1.24-1.06,2.48-2.14,3.71-3.22.27.36.55.71.83,1.07Z"/>
  <path class="cls-22" d="m110,198.38c-1.11-.25-2.24-.44-3.33-.76-1.67-.49-3.31-1.05-4.96-1.61-1.13-.38-2.27-.73-3.35-1.22-2.67-1.2-5.39-2.32-7.93-3.74-2.98-1.66-5.87-3.49-8.66-5.46-2.12-1.49-4.01-3.3-6.01-4.96-.29-.19-.64-.33-.85-.58-.35-.42-.6-.92-.9-1.38.26-.35.51-.69.77-1.04,1.65,1.54,3.17,3.24,4.97,4.57,3.31,2.44,6.75,4.69,10.2,6.93,1.61,1.04,3.36,1.86,5.05,2.78,1.59.65,3.18,1.3,4.77,1.95,3.75,1.09,7.5,2.19,11.26,3.25.46.13.99.05,1.48.07.08,0,.16,0,.24.01.25.08.5.17.75.25-.17.4-.33.8-.5,1.2-.67,0-1.33,0-2,0-.33-.08-.67-.16-1-.25Z"/>
  <path class="cls-10" d="m111.75,58.88c.58-.08,1.16-.17,1.75-.25.08.57.17,1.14.25,1.7-4.81.18-9.36,1.58-13.79,3.27-3.7,1.42-7.32,3.14-10.79,5.06-5.06,2.81-9.68,6.28-13.75,10.44-.2.21-.44.38-.66.57-.26-.27-.51-.54-.77-.81,0-.08,0-.16,0-.25-.08-.08-.16-.16-.25-.25-.07-.04-.11-.1-.13-.18.21-.19.42-.39.64-.58.7-.4,1.46-.73,2.08-1.22,2.22-1.77,4.31-3.73,6.6-5.39,3.56-2.57,7.34-4.83,11.41-6.53,3.18-1.34,6.38-2.68,9.66-3.75,2.34-.76,4.83-1.08,7.25-1.59.17-.08.33-.16.5-.25Z"/>
  <path class="cls-26" d="m204.57,210.26c-.19-.37-.39-.74-.58-1.11,1.17,0,1.5-1,2.1-1.71,1.29-1.52,2.68-2.95,3.94-4.48,2.53-3.06,5.12-6.08,7.46-9.28,1.69-2.32,3.05-4.9,4.5-7.4,1.32-2.27,2.64-4.55,3.83-6.9.85-1.67,1.47-3.45,2.22-5.17.3-.67.7-1.3,1.04-1.95.35-.67.6-1.43,1.06-2.01.28-.35.89-.43,1.35-.64-.99,2.27-1.94,4.55-2.99,6.79-1.25,2.66-2.49,5.33-3.9,7.91-4.55,8.31-10.12,15.89-16.56,22.84-.85.91-1.71,1.82-2.6,2.7-.22.21-.58.27-.88.4Z"/>
  <path class="cls-12" d="m201.5,48.88c.17.51.34,1.02.51,1.53-3.06,3.12-6.1,6.25-9.18,9.34-5.7,5.72-11.42,11.42-17.14,17.13-.2.2-.45.36-.67.54.15-.43.28-.86.44-1.28.16-.43.36-.85.54-1.28.49-.68.89-1.44,1.47-2.02,4.57-4.62,9.17-9.21,13.77-13.8,3.41-3.4,6.84-6.77,10.26-10.16Z"/>
  <path class="cls-23" d="m63.5,225.38c1.83.96,3.62,1.98,5.48,2.87,4.44,2.13,8.89,4.26,13.38,6.27,2.37,1.06,4.84,1.91,7.29,2.77,1.5.53,3.06.9,4.59,1.33.3.34.61.69.96,1.08-.23.2-.47.41-.7.62-.42-.08-.84-.16-1.26-.24-.09-.06-.19-.12-.28-.18,0,0,.02.02.02.02-.14-.33-.27-.67-.44-1.08-.55.17-1.04.33-1.54.49-2.64-.91-5.34-1.67-7.9-2.77-4.7-2.03-9.35-4.17-13.94-6.43-2.33-1.15-4.48-2.65-6.71-3.99.35-.26.69-.51,1.04-.77Z"/>
  <path class="cls-6" d="m175.99,74.86c-.18.43-.37.85-.54,1.28-.16.42-.3.85-.44,1.28-.15.16-.3.32-.45.48-.66-.02-1.28,0-.88.95-.16.17-.32.35-.47.52-.24.07-.47.15-.71.22-.17-.06-.41-.06-.5-.18-3.57-4.43-8.16-7.55-13.05-10.28-2.3-1.28-4.63-2.5-6.95-3.75.55-1.04,1.32-.27,2-.25,1.72.78,3.52,1.41,5.13,2.37,4.65,2.77,9.1,5.84,12.87,9.78.19.2.94.16,1.21-.05.82-.63,1.53-1.39,2.28-2.1.09-.08.17-.17.26-.25.08,0,.16,0,.25-.01Z"/>
  <path class="cls-14" d="m63.5,225.38c-.35.26-.69.51-1.04.77-2.23-1.49-4.57-2.84-6.67-4.49-3.69-2.89-7.26-5.94-10.84-8.98-.9-.76-1.64-1.71-2.46-2.57.19-.16.38-.33.58-.49.64.26,1.28.51,1.91.77.44.55.8,1.19,1.32,1.65,2.23,1.97,4.43,4,6.8,5.79,3.16,2.39,6.47,4.57,9.71,6.85.26.19.46.47.69.7Z"/>
  <path class="cls-17" d="m94.51,240.33c.23-.21.47-.41.7-.62-.35-.4-.65-.74-.96-1.08.68.16,1.35.33,2.03.46,2.7.52,5.45.83,8.07,1.6,2.22.65,4.48.61,6.69,1.03.83.16,1.47,1.27,2.2,1.95-6.35-.53-12.62-1.51-18.73-3.34Z"/>
  <path class="cls-21" d="m234.75,107.38c-.25-.57-.5-1.14-.75-1.71,2.37-.13,2.47-.15,2.97,2.02.41,1.77.53,3.61.79,5.42.06.09.11.17.17.26.01.17.03.34.04.51-.12.07-.24.14-.37.21.13.1.26.2.39.29.01.13.03.26.04.4.05.28.11.56.16.84.02.58.04,1.17.06,1.75.06.17.12.33.18.5.11,1.75.22,3.5.32,5.26-1.39-.13-1.89-.89-1.78-2.27.11-1.47.03-2.95.02-4.43,0-.98-.03-1.88-.66-2.81-.46-.69-.37-1.84-.31-2.77.08-1.37-.22-2.54-1.28-3.46Z"/>
  <path class="cls-24" d="m173.72,178.91c-.28-.36-.55-.71-.83-1.07.06-.19.06-.43.18-.55,4.22-4.14,7.49-9,10.66-13.94.34.43.67.85,1.01,1.28-2.87,4.13-5.39,8.52-9.25,11.87-.28.24-.55.52-.88.68-.77.38-.96.94-.64,1.71-.09,0-.17.01-.26.02Z"/>
  <path class="cls-5" d="m154,65.13c-.68-.01-1.45-.79-2,.25-3.13-1.07-6.24-2.22-9.41-3.19-1.99-.6-4.06-.93-6.09-1.38.54-.81,2.39-1.1,3.4-.61.46.22,1,.41,1.5.41,1.38,0,2.62.22,3.92.83,1.94.92,4.08,1.42,6.1,2.21.91.36,1.72.98,2.58,1.48Z"/>
  <path class="cls-16" d="m134.75,197.17c-.17.48-.33.97-.5,1.45-.87.16-1.75.34-2.62.48-1.18.19-2.35.47-3.53.5-3.03.07-6.06.02-9.09.02-.08-.5-.17-1.01-.25-1.51.5-.01.99-.02,1.49-.04.25,0,.5-.02.76-.02.16,0,.33,0,.49,0,.25,0,.51,0,.76,0,2.46-.12,4.92-.21,7.37-.37,1.71-.12,3.42-.34,5.12-.52Z"/>
  <path class="cls-21" d="m184.75,164.63c-.34-.43-.67-.85-1.01-1.28.04-.08.07-.17.11-.25.05-.07.1-.14.16-.2,1.45-3.12,2.92-6.24,4.35-9.37.23-.5.27-1.1.4-1.65.13.2.21.49.4.59.38.21,1.18.35,1.17.48-.05.72-.17,1.47-.48,2.12-.76,1.62-1.61,3.19-2.45,4.76-.86,1.61-1.76,3.2-2.64,4.79Z"/>
  <path class="cls-5" d="m129.75,13.67c-.26.28-.48.73-.8.82-3.63.98-7.28,1.42-10.92.09-.4-.15-.69-.6-1.03-.91,4.25,0,8.5,0,12.75,0Z"/>
  <path class="cls-13" d="m113.75,60.34c-.08-.57-.17-1.14-.25-1.7,1.15-.12,2.3-.27,3.45-.35,2.33-.15,4.66-.35,6.99-.35.95,0,2.07.25,2.05,1.66-1.96.01-3.93-.06-5.89.06-2.13.13-4.24.45-6.36.69Z"/>
  <path class="cls-13" d="m105,16.37c.25-.48.49-.96.74-1.44,2.59-.34,5.17-.67,7.76-1.01.12,1.06-.52,1.56-1.42,1.67-2.36.3-4.72.52-7.08.78Z"/>
  <path class="cls-17" d="m118.75,198.11c.08.5.17,1.01.25,1.51-1.17-.03-2.28.13-3.36-.79-.55-.46-1.74-.17-2.64-.21.17-.4.33-.8.5-1.2,1.75.23,3.5.46,5.26.69Z"/>
  <path class="cls-9" d="m99.76,193.84c-1.59-.65-3.18-1.3-4.77-1.95.42-.07.88-.29,1.24-.18.92.27,1.83.62,2.68,1.07.37.19.57.7.85,1.06Z"/>
  <path class="cls-17" d="m91.01,239.33c.49-.16.99-.31,1.54-.49.17.41.3.74.44,1.08-.66-.2-1.32-.39-1.97-.59Z"/>
  <path class="cls-12" d="m173.69,78.86c-.4-.95.22-.97.88-.95-.29.32-.58.64-.88.95Z"/>
  <path class="cls-18" d="m238,114.38c-.13-.1-.26-.2-.39-.29.12-.07.24-.14.37-.21,0,.17.02.33.03.5Z"/>
  <path class="cls-16" d="m136.74,197.11c-.09.14-.19.28-.28.41l-.22-.36c.17-.02.33-.04.5-.05Z"/>
  <path class="cls-8" d="m187.72,151.82c.1-.06.19-.12.29-.18.17.07.34.15.51.22-.26-.01-.53-.03-.79-.04Z"/>
  <path class="cls-18" d="m238.2,115.62c-.05-.28-.11-.56-.16-.84.05.28.11.56.16.84Z"/>
  <path class="cls-12" d="m172.5,79.59c.24-.07.47-.15.71-.22-.24.07-.47.15-.71.22Z"/>
  <path class="cls-9" d="m121,198.05c-.25,0-.5.02-.76.02.25,0,.5-.02.76-.02Z"/>
  <path class="cls-9" d="m122.25,198.07c-.25,0-.51,0-.76,0,.25,0,.51,0,.76,0Z"/>
  <path class="cls-18" d="m238.44,117.87c-.06-.17-.12-.33-.18-.5.06.17.12.33.18.5Z"/>
  <path class="cls-20" d="m163.51,236.84c.17-.07.34-.13.5-.2-.17.07-.34.13-.5.2Z"/>
  <path class="cls-8" d="m149.71,151.8c.11,0,.22,0,.33-.01-.11,0-.22,0-.33.01Z"/>
  <path class="cls-17" d="m112.75,197.17c-.08,0-.16,0-.24-.01.08,0,.16,0,.24.01Z"/>
  <path class="cls-24" d="m184,162.9c-.05.07-.1.14-.16.2.05-.07.1-.14.16-.2Z"/>
  <path class="cls-8" d="m186.71,151.75c.11.02.22.03.33.05-.11-.02-.22-.03-.33-.05Z"/>
  <path class="cls-8" d="m148.73,151.85c.1,0,.2-.01.3-.02-.1,0-.2.01-.3.02Z"/>
  <path class="cls-18" d="m237.93,113.37c-.06-.09-.11-.17-.17-.26.06.09.11.17.17.26Z"/>
  <path class="cls-2" d="m134.75,13.95c-.08,0-.16-.01-.24-.02.08,0,.16.01.24.02Z"/>
  <path class="cls-17" d="m92.96,239.9c.09.06.19.12.28.18-.09-.06-.19-.12-.28-.18Z"/>
  <path class="cls-25" d="m44.98,210.39c-.64-.26-1.28-.51-1.91-.77,2.98-2.94,5.98-5.86,8.94-8.83,6.53-6.53,13.05-13.08,19.57-19.63.82-.82,1.62-1.67,2.42-2.51.29.46.55.96.9,1.38.21.25.56.39.85.58-.94.56-1.99.99-2.78,1.71-1.59,1.45-3,3.08-4.53,4.59-4.79,4.77-9.61,9.5-14.39,14.28-1.96,1.96-3.84,4.02-5.78,6-1.07,1.09-2.19,2.12-3.29,3.17Z"/>
  <path class="cls-7" d="m73.62,78.2c.02.08.07.14.13.18.08.08.16.16.25.25,0,.08,0,.16,0,.25-.17.4-.34.81-.66,1.55-1.06-1-1.98-1.8-2.83-2.67-1.73-1.77-3.38-3.6-5.13-5.35-4.37-4.37-8.78-8.72-13.18-13.07-2.77-2.74-5.57-5.45-8.28-8.24-.74-.76-1.29-1.77-.69-2.95.07,0,.15,0,.22,0,1.36,1.39,2.7,2.79,4.07,4.17,7.99,8.06,15.98,16.12,23.98,24.16.64.64,1.4,1.15,2.1,1.73Z"/>
  <path class="cls-16" d="m136,198.62c.28-.77.75-.59,1.25-.24-.42.08-.83.16-1.25.24Z"/>
  <path class="cls-17" d="m110,198.38c.33.08.67.16,1,.25-.33-.08-.67-.16-1-.25Z"/>
  <path class="cls-4" d="m73.62,78.2c-.7-.57-1.47-1.09-2.1-1.73-8.01-8.04-15.99-16.1-23.98-24.16-1.37-1.38-2.71-2.78-4.07-4.17.51-.18,1.02-.35,1.53-.53,1.9,1.91,3.8,3.82,5.7,5.73,1.77,1.78,3.55,3.55,5.32,5.33,3.19,3.2,6.38,6.4,9.56,9.6,2.67,2.68,5.34,5.35,7.98,8.05.33.34.47.85.7,1.28-.21.19-.42.39-.64.58Z"/>
  <path class="cls-13" d="m111.75,58.88c-.17.08-.33.16-.5.25.17-.08.33-.16.5-.25Z"/>
  <path class="cls-12" d="m175.75,74.88c-.09.08-.17.17-.26.25.09-.08.17-.17.26-.25Z"/>
  <path class="cls-4" d="m74,78.63c-.08-.08-.16-.16-.25-.25.08.08.16.16.25.25Z"/>
</svg>